<?xml version="1.0" encoding="UTF-8" standalone="no"?>
<!DOCTYPE svg PUBLIC "-//W3C//DTD SVG 1.1//EN" "http://www.w3.org/Graphics/SVG/1.1/DTD/svg11.dtd">
<svg xmlns="http://www.w3.org/2000/svg" version="1.1" viewBox="0 0 128 128">
<g stroke-width="2.00" fill="none" stroke-linecap="butt">
<path stroke="#444444" vector-effect="non-scaling-stroke" d="
  M 27.46 30.50
  C 22.47 42.18 22.48 54.30 22.79 66.75"
/>
<path stroke="#313131" vector-effect="non-scaling-stroke" d="
  M 22.79 66.75
  L 22.79 104.00
  A 0.38 0.37 -11.8 0 0 23.27 104.36
  C 30.67 102.20 40.19 102.37 43.96 110.25"
/>
<path stroke="#393939" vector-effect="non-scaling-stroke" d="
  M 43.96 110.25
  L 46.37 117.38
  A 0.82 0.79 -5.5 0 0 47.05 117.92
  Q 64.00 119.71 80.96 117.78
  A 0.57 0.57 0.0 0 0 81.47 117.26
  Q 81.79 113.64 83.54 110.50"
/>
<path stroke="#313131" vector-effect="non-scaling-stroke" d="
  M 83.54 110.50
  C 87.12 102.49 96.84 102.08 104.23 104.36
  A 0.37 0.37 0.0 0 0 104.71 104.00
  L 104.71 81.50"
/>
<path stroke="#393939" vector-effect="non-scaling-stroke" d="
  M 104.71 81.50
  L 104.46 49.75"
/>
<path stroke="#444444" vector-effect="non-scaling-stroke" d="
  M 104.46 49.75
  Q 103.98 35.06 96.04 22.75"
/>
<path stroke="#4e4e4e" vector-effect="non-scaling-stroke" d="
  M 96.04 22.75
  C 77.58 -7.14 39.97 -0.36 27.46 30.50"
/>
<path stroke="#929292" vector-effect="non-scaling-stroke" d="
  M 96.04 22.75
  Q 96.08 24.90 93.92 25.49
  A 0.40 0.39 -21.2 0 0 93.67 26.05
  C 94.40 27.48 99.09 36.91 97.43 37.65
  A 0.70 0.69 60.5 0 1 96.58 37.41
  L 96.29 37.00"
/>
<path stroke="#4e4e4e" vector-effect="non-scaling-stroke" d="
  M 96.29 37.00
  Q 95.13 30.05 90.54 24.75"
/>
<path stroke="#a3a3a3" vector-effect="non-scaling-stroke" d="
  M 90.54 24.75
  L 91.26 24.43
  A 0.45 0.44 61.5 0 0 91.45 23.77
  C 78.93 5.37 54.84 2.21 39.71 19.59
  A 0.47 0.46 -54.3 0 0 39.82 20.29
  L 40.25 20.54"
/>
<path stroke="#4e4e4e" vector-effect="non-scaling-stroke" d="
  M 40.25 20.54
  Q 34.16 24.57 31.21 31.25"
/>
<path stroke="#929292" vector-effect="non-scaling-stroke" d="
  M 31.21 31.25
  Q 29.17 31.95 27.46 30.50"
/>
<path stroke="#757575" vector-effect="non-scaling-stroke" d="
  M 25.46 68.00
  L 22.79 66.75"
/>
<path stroke="#565555" vector-effect="non-scaling-stroke" d="
  M 90.54 24.75
  C 83.54 16.87 72.07 14.48 63.39 21.20
  A 0.70 0.69 -46.2 0 1 62.58 21.22
  Q 51.79 13.61 40.25 20.54"
/>
<path stroke="#444444" vector-effect="non-scaling-stroke" d="
  M 96.29 37.00
  Q 97.43 47.38 90.12 54.40
  A 0.37 0.37 0.0 0 0 90.20 54.99
  Q 96.18 58.25 99.79 64.00"
/>
<path stroke="#393939" vector-effect="non-scaling-stroke" d="
  M 99.79 64.00
  C 103.58 71.55 99.10 77.85 93.00 82.04"
/>
<path stroke="#313131" vector-effect="non-scaling-stroke" d="
  M 93.00 82.04
  C 76.22 92.28 51.87 91.84 34.74 82.55
  Q 25.64 77.61 25.46 68.00"
/>
<path stroke="#444444" vector-effect="non-scaling-stroke" d="
  M 25.46 68.00
  C 26.83 61.97 30.92 58.45 36.03 55.32
  A 0.39 0.39 0.0 0 0 36.09 54.71
  Q 25.95 44.91 31.21 31.25"
/>
<path stroke="#7d7d7d" vector-effect="non-scaling-stroke" d="
  M 104.46 49.75
  Q 102.82 51.29 101.16 50.03
  Q 100.76 49.74 100.77 50.23
  L 100.97 63.03
  A 0.97 0.96 75.1 0 1 100.48 63.89
  Q 100.16 64.07 99.79 64.00"
/>
<path stroke="#6a6a6a" vector-effect="non-scaling-stroke" d="
  M 83.54 110.50
  L 83.04 108.75"
/>
<path stroke="#6e6e6e" vector-effect="non-scaling-stroke" d="
  M 83.04 108.75
  Q 82.82 106.75 81.82 105.68"
/>
<path stroke="#757575" vector-effect="non-scaling-stroke" d="
  M 81.82 105.68
  C 73.51 89.86 52.52 90.47 45.25 106.71"
/>
<path stroke="#6e6e6e" vector-effect="non-scaling-stroke" d="
  M 45.25 106.71
  L 44.54 109.25"
/>
<path stroke="#6a6a6a" vector-effect="non-scaling-stroke" d="
  M 44.54 109.25
  L 43.96 110.25"
/>
<path stroke="#6a6a6a" vector-effect="non-scaling-stroke" d="
  M 104.71 81.50
  Q 103.80 81.87 102.66 81.61
  A 0.89 0.89 0.0 0 0 101.84 81.86
  C 99.79 84.01 95.06 85.17 93.00 82.04"
/>
<path stroke="#828282" vector-effect="non-scaling-stroke" d="
  M 81.82 105.68
  Q 64.50 107.06 47.25 107.31
  Q 46.17 107.33 45.25 106.71"
/>
<path stroke="#777777" vector-effect="non-scaling-stroke" d="
  M 83.04 108.75
  Q 83.21 110.52 81.24 110.61
  Q 68.46 111.22 55.68 111.31
  C 53.19 111.32 49.80 112.02 46.68 111.58
  A 1.24 1.23 76.4 0 1 45.88 111.09
  L 44.54 109.25"
/>
<path stroke="#3e3e3e" vector-effect="non-scaling-stroke" d="
  M 4.04 43.50
  C 4.26 51.02 11.89 57.71 18.83 52.59
  Q 19.24 52.29 18.74 52.36
  Q 9.10 53.65 7.46 44.25"
/>
<path stroke="#4e4e4e" vector-effect="non-scaling-stroke" d="
  M 7.46 44.25
  Q 9.44 33.03 20.56 36.55
  Q 21.03 36.70 20.68 36.34
  C 14.00 29.53 4.41 34.54 4.04 43.50"
/>
<path stroke="#8b8b8b" vector-effect="non-scaling-stroke" d="
  M 7.46 44.25
  Q 5.41 44.77 4.04 43.50"
/>
<path stroke="#3e3e3e" vector-effect="non-scaling-stroke" d="
  M 120.29 44.75
  Q 118.02 53.69 108.76 52.35
  Q 108.27 52.28 108.68 52.56
  C 115.24 57.12 122.76 52.12 123.46 44.75"
/>
<path stroke="#4e4e4e" vector-effect="non-scaling-stroke" d="
  M 123.46 44.75
  C 124.21 35.11 113.68 28.86 106.85 36.54
  Q 106.52 36.92 106.99 36.73
  C 113.72 34.09 120.10 37.25 120.29 44.75"
/>
<path stroke="#8b8b8b" vector-effect="non-scaling-stroke" d="
  M 123.46 44.75
  Q 121.93 45.37 120.29 44.75"
/>
<path stroke="#6a5b46" vector-effect="non-scaling-stroke" d="
  M 20.44 39.07
  C 8.10 30.91 4.88 54.74 19.00 50.00
  A 0.75 0.75 0.0 0 0 19.50 49.39
  L 20.78 39.82
  A 0.77 0.76 21.0 0 0 20.44 39.07"
/>
<path stroke="#6a5b46" vector-effect="non-scaling-stroke" d="
  M 115.84 49.12
  C 122.70 42.87 113.64 33.59 107.15 39.28
  A 0.95 0.93 65.5 0 0 106.85 40.11
  L 108.13 49.25
  A 0.78 0.76 -82.6 0 0 108.58 49.85
  Q 112.86 51.83 115.84 49.12"
/>
<path stroke="#393939" vector-effect="non-scaling-stroke" d="
  M 8.29 78.25
  Q 6.82 82.37 7.04 86.75"
/>
<path stroke="#2a2a2a" vector-effect="non-scaling-stroke" d="
  M 7.04 86.75
  Q 6.86 93.94 7.88 100.87
  A 0.84 0.83 -7.1 0 0 8.80 101.58
  L 18.90 100.41
  A 0.58 0.57 -3.4 0 0 19.41 99.84
  L 19.46 87.50"
/>
<path stroke="#393939" vector-effect="non-scaling-stroke" d="
  M 19.46 87.50
  L 19.46 79.75"
/>
<path stroke="#3e3e3e" vector-effect="non-scaling-stroke" d="
  M 19.46 79.75
  L 19.35 71.71
  A 0.59 0.58 3.3 0 0 18.83 71.13
  Q 10.62 70.21 8.29 78.25"
/>
<path stroke="#777777" vector-effect="non-scaling-stroke" d="
  M 19.46 79.75
  Q 13.79 79.65 8.29 78.25"
/>
<path stroke="#636363" vector-effect="non-scaling-stroke" d="
  M 19.46 87.50
  Q 16.55 88.19 14.25 87.50
  Q 10.31 86.32 7.04 86.75"
/>
<path stroke="#313131" vector-effect="non-scaling-stroke" d="
  M 108.29 83.75
  L 108.29 93.75"
/>
<path stroke="#2a2a2a" vector-effect="non-scaling-stroke" d="
  M 108.29 93.75
  L 108.35 99.79
  A 0.70 0.69 -87.2 0 0 108.96 100.47
  L 118.98 101.71
  A 0.62 0.61 6.3 0 0 119.67 101.16
  L 120.46 92.00"
/>
<path stroke="#313131" vector-effect="non-scaling-stroke" d="
  M 120.46 92.00
  Q 121.04 86.58 120.22 81.72"
/>
<path stroke="#3e3e3e" vector-effect="non-scaling-stroke" d="
  M 120.22 81.72
  C 119.21 75.33 116.01 70.17 108.78 71.02
  A 0.56 0.55 -2.9 0 0 108.28 71.57
  L 108.29 83.75"
/>
<path stroke="#6e6e6e" vector-effect="non-scaling-stroke" d="
  M 120.22 81.72
  Q 114.40 83.25 108.29 83.75"
/>
<path stroke="#5b5b5b" vector-effect="non-scaling-stroke" d="
  M 120.46 92.00
  L 108.29 93.75"
/>
<path stroke="#444444" vector-effect="non-scaling-stroke" d="
  M 12.45 115.77
  C 14.04 111.63 15.23 109.12 19.02 106.52
  A 1.11 1.10 -17.3 0 0 19.50 105.61
  L 19.51 104.16
  A 0.45 0.44 -3.9 0 0 19.00 103.72
  L 8.11 105.14
  A 1.04 1.03 -74.8 0 0 7.39 105.56
  C 5.11 108.56 2.74 115.34 6.17 118.35
  A 0.59 0.59 0.0 0 0 6.94 118.36
  Q 9.15 116.52 11.96 116.15
  A 0.62 0.61 6.4 0 0 12.45 115.77"
/>
<path stroke="#444444" vector-effect="non-scaling-stroke" d="
  M 112.25 109.79
  Q 114.19 112.38 115.16 115.48
  A 0.87 0.86 87.6 0 0 115.79 116.06
  Q 118.51 116.67 120.45 118.22
  A 1.12 1.12 0.0 0 0 122.19 117.76
  Q 124.01 113.16 121.96 108.75"
/>
<path stroke="#4e4e4e" vector-effect="non-scaling-stroke" d="
  M 121.96 108.75
  L 120.31 105.62
  A 0.87 0.87 0.0 0 0 119.66 105.17
  L 108.89 103.82
  A 0.55 0.55 0.0 0 0 108.29 104.22
  C 107.60 106.76 110.87 107.85 112.25 109.79"
/>
<path stroke="#929292" vector-effect="non-scaling-stroke" d="
  M 121.96 108.75
  Q 117.19 110.03 112.25 109.79"
/>
<path stroke="#444444" vector-effect="non-scaling-stroke" d="
  M 17.21 113.00
  Q 13.66 118.54 16.42 124.49
  A 0.65 0.64 -35.1 0 0 17.46 124.67
  Q 21.85 120.23 26.18 124.16
  A 0.91 0.90 51.4 0 0 27.22 124.28
  L 31.02 122.19
  A 1.30 1.30 0.0 0 1 31.83 122.04
  C 35.58 122.59 36.36 125.52 40.92 124.28
  A 1.26 1.24 -81.7 0 0 41.66 123.72
  Q 44.10 119.67 42.25 115.21"
/>
<path stroke="#565555" vector-effect="non-scaling-stroke" d="
  M 42.25 115.21
  C 39.53 102.48 23.32 105.15 17.21 113.00"
/>
<path stroke="#9a9999" vector-effect="non-scaling-stroke" d="
  M 42.25 115.21
  C 37.49 115.11 20.35 115.54 17.21 113.00"
/>
<path stroke="#4e4e4e" vector-effect="non-scaling-stroke" d="
  M 87.60 109.73
  Q 84.60 114.57 84.79 119.75"
/>
<path stroke="#3e3e3e" vector-effect="non-scaling-stroke" d="
  M 84.79 119.75
  C 84.21 123.73 87.52 125.40 90.85 124.31
  C 92.58 123.75 93.75 122.00 96.32 121.96
  A 1.18 1.18 0.0 0 1 97.21 122.34
  Q 100.45 125.83 103.67 122.58
  A 1.30 1.29 -66.2 0 1 104.63 122.20
  Q 107.69 122.31 109.77 124.23
  A 1.08 1.08 0.0 0 0 111.52 123.82
  Q 112.99 119.90 112.10 117.67"
/>
<path stroke="#4e4e4e" vector-effect="non-scaling-stroke" d="
  M 112.10 117.67
  Q 110.86 110.80 105.86 109.21"
/>
<path stroke="#565555" vector-effect="non-scaling-stroke" d="
  M 105.86 109.21
  Q 96.05 103.36 87.60 109.73"
/>
<path stroke="#a3a3a3" vector-effect="non-scaling-stroke" d="
  M 105.86 109.21
  Q 97.85 111.69 88.49 111.02
  Q 87.66 110.96 87.60 109.73"
/>
<path stroke="#8b8b8b" vector-effect="non-scaling-stroke" d="
  M 112.10 117.67
  L 84.79 119.75"
/>
<path stroke="#565555" vector-effect="non-scaling-stroke" d="
  M 40.56 56.25
  C 35.44 57.87 29.33 62.05 28.19 68.15"
/>
<path stroke="#4e4e4e" vector-effect="non-scaling-stroke" d="
  M 28.19 68.15
  Q 27.56 69.90 28.54 72.50"
/>
<path stroke="#484848" vector-effect="non-scaling-stroke" d="
  M 28.54 72.50
  Q 31.22 78.27 37.00 81.04"
/>
<path stroke="#3e3e3e" vector-effect="non-scaling-stroke" d="
  M 37.00 81.04
  C 53.68 89.12 76.80 89.65 92.75 79.04"
/>
<path stroke="#484848" vector-effect="non-scaling-stroke" d="
  M 92.75 79.04
  Q 97.59 75.90 98.71 70.25"
/>
<path stroke="#4e4e4e" vector-effect="non-scaling-stroke" d="
  M 98.71 70.25
  Q 98.92 68.68 98.26 66.77"
/>
<path stroke="#565555" vector-effect="non-scaling-stroke" d="
  M 98.26 66.77
  C 96.51 61.61 90.82 57.82 85.86 56.07"
/>
<path stroke="#606060" vector-effect="non-scaling-stroke" d="
  M 85.86 56.07
  Q 85.08 55.71 84.77 55.33
  A 0.45 0.44 57.8 0 1 84.92 54.65
  C 95.89 49.34 96.32 35.65 89.23 27.00
  C 82.67 19.01 71.05 16.80 63.41 24.59
  A 0.55 0.54 -47.9 0 1 62.68 24.63
  C 40.55 6.34 18.83 44.73 41.36 54.83
  A 0.45 0.45 0.0 0 1 41.53 55.51
  Q 41.25 55.89 40.56 56.25"
/>
<path stroke="#b6b5b5" vector-effect="non-scaling-stroke" d="
  M 85.86 56.07
  Q 80.89 58.82 75.00 57.79"
/>
<path stroke="#606060" vector-effect="non-scaling-stroke" d="
  M 75.00 57.79
  C 73.03 52.15 66.00 55.87 68.54 61.00"
/>
<path stroke="#b6b5b5" vector-effect="non-scaling-stroke" d="
  M 68.54 61.00
  Q 63.50 62.53 58.42 61.12"
/>
<path stroke="#606060" vector-effect="non-scaling-stroke" d="
  M 58.42 61.12
  C 60.74 55.67 54.38 52.44 52.46 57.28"
/>
<path stroke="#b6b5b5" vector-effect="non-scaling-stroke" d="
  M 52.46 57.28
  Q 46.19 58.86 40.56 56.25"
/>
<path stroke="#565555" vector-effect="non-scaling-stroke" d="
  M 75.00 57.79
  C 75.60 62.05 71.49 64.38 68.54 61.00"
/>
<path stroke="#a3a3a3" vector-effect="non-scaling-stroke" d="
  M 98.26 66.77
  L 28.19 68.15"
/>
<path stroke="#565555" vector-effect="non-scaling-stroke" d="
  M 58.42 61.12
  C 56.04 64.92 51.57 61.55 52.46 57.28"
/>
<path stroke="#969695" vector-effect="non-scaling-stroke" d="
  M 98.71 70.25
  C 77.25 69.60 55.43 70.70 33.96 71.28
  C 32.11 71.33 30.36 72.07 28.54 72.50"
/>
<path stroke="#868685" vector-effect="non-scaling-stroke" d="
  M 92.75 79.04
  C 89.66 78.70 80.54 78.98 80.00 77.04"
/>
<path stroke="#484848" vector-effect="non-scaling-stroke" d="
  M 80.00 77.04
  Q 81.28 76.36 82.17 75.22
  Q 82.50 74.80 81.99 74.96
  Q 77.36 76.39 72.68 77.67
  C 62.52 80.45 53.72 77.68 43.99 74.98
  Q 43.49 74.85 43.87 75.20
  Q 46.24 77.37 49.25 78.54"
/>
<path stroke="#868685" vector-effect="non-scaling-stroke" d="
  M 49.25 78.54
  Q 43.34 80.77 37.00 81.04"
/>
<path stroke="#3e3e3e" vector-effect="non-scaling-stroke" d="
  M 80.00 77.04
  Q 65.06 85.85 49.25 78.54"
/>
<path stroke="#606060" vector-effect="non-scaling-stroke" d="
  M 63.19 43.31
  C 67.85 53.40 81.48 58.12 89.05 48.20
  C 100.93 32.64 75.29 10.39 63.12 29.08
  A 0.32 0.31 -44.7 0 1 62.59 29.08
  C 50.74 10.56 25.32 32.17 36.55 47.95
  C 43.86 58.20 58.21 53.41 62.81 43.32
  A 0.21 0.21 0.0 0 1 63.19 43.31"
/>
<path stroke="#808080" vector-effect="non-scaling-stroke" d="
  M 41.8492 48.5232
  A 12.92 11.37 124.3 0 0 58.5227 44.2573
  A 12.92 11.37 124.3 0 0 56.4108 27.1768
  A 12.92 11.37 124.3 0 0 39.7373 31.4427
  A 12.92 11.37 124.3 0 0 41.8492 48.5232"
/>
<path stroke="#808080" vector-effect="non-scaling-stroke" d="
  M 84.0420 48.5235
  A 12.96 11.36 55.6 0 0 86.0933 31.4120
  A 12.96 11.36 55.6 0 0 69.3980 27.1365
  A 12.96 11.36 55.6 0 0 67.3467 44.2480
  A 12.96 11.36 55.6 0 0 84.0420 48.5235"
/>
<path stroke="#808080" vector-effect="non-scaling-stroke" d="
  M 55.80 40.08
  A 3.40 3.40 0.0 0 0 52.40 36.68
  A 3.40 3.40 0.0 0 0 49.00 40.08
  A 3.40 3.40 0.0 0 0 52.40 43.48
  A 3.40 3.40 0.0 0 0 55.80 40.08"
/>
<path stroke="#808080" vector-effect="non-scaling-stroke" d="
  M 77.02 40.08
  A 3.41 3.41 0.0 0 0 73.61 36.67
  A 3.41 3.41 0.0 0 0 70.20 40.08
  A 3.41 3.41 0.0 0 0 73.61 43.49
  A 3.41 3.41 0.0 0 0 77.02 40.08"
/>
<path stroke="#393939" vector-effect="non-scaling-stroke" d="
  M 55.6522 60.0000
  A 1.25 0.88 89.9 0 0 56.5300 58.7485
  A 1.25 0.88 89.9 0 0 55.6478 57.5000
  A 1.25 0.88 89.9 0 0 54.7700 58.7515
  A 1.25 0.88 89.9 0 0 55.6522 60.0000"
/>
<path stroke="#393939" vector-effect="non-scaling-stroke" d="
  M 71.5322 60.0300
  A 1.28 1.02 89.9 0 0 72.5500 58.7482
  A 1.28 1.02 89.9 0 0 71.5278 57.4700
  A 1.28 1.02 89.9 0 0 70.5100 58.7518
  A 1.28 1.02 89.9 0 0 71.5322 60.0300"
/>
</g>
<path fill="#000000" d="
  M 61.06 0.00
  L 66.81 0.00
  C 85.40 2.23 98.95 15.83 104.78 33.05
  A 0.44 0.43 -29.3 0 0 105.48 33.24
  C 113.55 26.36 125.14 31.06 126.74 41.25
  C 128.33 51.36 119.23 60.75 108.83 56.43
  A 0.42 0.42 0.0 0 0 108.25 56.82
  L 108.25 67.38
  A 0.48 0.48 0.0 0 0 108.80 67.85
  C 127.39 64.83 123.77 93.31 122.98 103.23
  A 1.42 1.40 -60.2 0 0 123.22 104.14
  C 126.25 108.54 129.08 120.26 121.22 121.80
  A 1.42 1.41 52.3 0 1 120.30 121.68
  L 116.42 119.69
  A 0.41 0.41 0.0 0 0 115.82 120.05
  Q 115.77 124.32 112.69 127.23
  A 1.57 1.57 0.0 0 1 111.79 127.65
  Q 108.51 128.03 106.07 125.65
  A 0.58 0.57 -38.2 0 0 105.36 125.57
  L 102.59 127.26
  A 1.76 1.70 27.6 0 1 101.71 127.52
  Q 98.52 127.60 96.03 125.60
  A 0.67 0.66 -44.6 0 0 95.20 125.60
  Q 92.67 127.57 89.69 128.00
  L 87.44 128.00
  Q 82.44 126.78 81.63 122.18
  A 1.23 1.22 81.6 0 0 80.28 121.17
  Q 63.46 123.15 46.78 121.26
  A 0.55 0.54 9.2 0 0 46.18 121.69
  Q 45.05 126.88 39.94 128.00
  L 37.69 128.00
  Q 34.90 127.50 32.65 125.70
  A 0.74 0.72 -40.2 0 0 31.84 125.64
  C 28.53 127.51 25.56 128.64 22.84 125.79
  A 0.67 0.66 54.3 0 0 22.05 125.65
  C 19.52 126.95 16.45 129.38 13.94 126.27
  Q 11.75 123.58 11.81 119.92
  A 0.37 0.36 76.0 0 0 11.27 119.59
  L 7.42 121.67
  A 1.33 1.33 0.0 0 1 6.53 121.81
  C -1.62 120.35 1.32 108.41 4.53 103.90
  A 1.28 1.27 58.8 0 0 4.75 102.99
  C 3.35 92.62 1.81 81.03 8.17 71.91
  Q 11.09 67.73 18.30 67.69
  A 1.20 1.20 0.0 0 0 19.50 66.49
  L 19.50 57.02
  A 0.47 0.47 0.0 0 0 18.86 56.58
  C 3.85 62.23 -5.68 42.04 5.86 32.81
  C 10.89 28.78 17.38 29.06 22.27 33.27
  A 0.36 0.36 0.0 0 0 22.85 33.11
  C 28.64 15.66 42.25 2.19 61.06 0.00
  Z
  M 27.46 30.50
  C 22.47 42.18 22.48 54.30 22.79 66.75
  L 22.79 104.00
  A 0.38 0.37 -11.8 0 0 23.27 104.36
  C 30.67 102.20 40.19 102.37 43.96 110.25
  L 46.37 117.38
  A 0.82 0.79 -5.5 0 0 47.05 117.92
  Q 64.00 119.71 80.96 117.78
  A 0.57 0.57 0.0 0 0 81.47 117.26
  Q 81.79 113.64 83.54 110.50
  C 87.12 102.49 96.84 102.08 104.23 104.36
  A 0.37 0.37 0.0 0 0 104.71 104.00
  L 104.71 81.50
  L 104.46 49.75
  Q 103.98 35.06 96.04 22.75
  C 77.58 -7.14 39.97 -0.36 27.46 30.50
  Z
  M 4.04 43.50
  C 4.26 51.02 11.89 57.71 18.83 52.59
  Q 19.24 52.29 18.74 52.36
  Q 9.10 53.65 7.46 44.25
  Q 9.44 33.03 20.56 36.55
  Q 21.03 36.70 20.68 36.34
  C 14.00 29.53 4.41 34.54 4.04 43.50
  Z
  M 120.29 44.75
  Q 118.02 53.69 108.76 52.35
  Q 108.27 52.28 108.68 52.56
  C 115.24 57.12 122.76 52.12 123.46 44.75
  C 124.21 35.11 113.68 28.86 106.85 36.54
  Q 106.52 36.92 106.99 36.73
  C 113.72 34.09 120.10 37.25 120.29 44.75
  Z
  M 20.44 39.07
  C 8.10 30.91 4.88 54.74 19.00 50.00
  A 0.75 0.75 0.0 0 0 19.50 49.39
  L 20.78 39.82
  A 0.77 0.76 21.0 0 0 20.44 39.07
  Z
  M 115.84 49.12
  C 122.70 42.87 113.64 33.59 107.15 39.28
  A 0.95 0.93 65.5 0 0 106.85 40.11
  L 108.13 49.25
  A 0.78 0.76 -82.6 0 0 108.58 49.85
  Q 112.86 51.83 115.84 49.12
  Z
  M 8.29 78.25
  Q 6.82 82.37 7.04 86.75
  Q 6.86 93.94 7.88 100.87
  A 0.84 0.83 -7.1 0 0 8.80 101.58
  L 18.90 100.41
  A 0.58 0.57 -3.4 0 0 19.41 99.84
  L 19.46 87.50
  L 19.46 79.75
  L 19.35 71.71
  A 0.59 0.58 3.3 0 0 18.83 71.13
  Q 10.62 70.21 8.29 78.25
  Z
  M 108.29 83.75
  L 108.29 93.75
  L 108.35 99.79
  A 0.70 0.69 -87.2 0 0 108.96 100.47
  L 118.98 101.71
  A 0.62 0.61 6.3 0 0 119.67 101.16
  L 120.46 92.00
  Q 121.04 86.58 120.22 81.72
  C 119.21 75.33 116.01 70.17 108.78 71.02
  A 0.56 0.55 -2.9 0 0 108.28 71.57
  L 108.29 83.75
  Z
  M 12.45 115.77
  C 14.04 111.63 15.23 109.12 19.02 106.52
  A 1.11 1.10 -17.3 0 0 19.50 105.61
  L 19.51 104.16
  A 0.45 0.44 -3.9 0 0 19.00 103.72
  L 8.11 105.14
  A 1.04 1.03 -74.8 0 0 7.39 105.56
  C 5.11 108.56 2.74 115.34 6.17 118.35
  A 0.59 0.59 0.0 0 0 6.94 118.36
  Q 9.15 116.52 11.96 116.15
  A 0.62 0.61 6.4 0 0 12.45 115.77
  Z
  M 112.25 109.79
  Q 114.19 112.38 115.16 115.48
  A 0.87 0.86 87.6 0 0 115.79 116.06
  Q 118.51 116.67 120.45 118.22
  A 1.12 1.12 0.0 0 0 122.19 117.76
  Q 124.01 113.16 121.96 108.75
  L 120.31 105.62
  A 0.87 0.87 0.0 0 0 119.66 105.17
  L 108.89 103.82
  A 0.55 0.55 0.0 0 0 108.29 104.22
  C 107.60 106.76 110.87 107.85 112.25 109.79
  Z
  M 17.21 113.00
  Q 13.66 118.54 16.42 124.49
  A 0.65 0.64 -35.1 0 0 17.46 124.67
  Q 21.85 120.23 26.18 124.16
  A 0.91 0.90 51.4 0 0 27.22 124.28
  L 31.02 122.19
  A 1.30 1.30 0.0 0 1 31.83 122.04
  C 35.58 122.59 36.36 125.52 40.92 124.28
  A 1.26 1.24 -81.7 0 0 41.66 123.72
  Q 44.10 119.67 42.25 115.21
  C 39.53 102.48 23.32 105.15 17.21 113.00
  Z
  M 87.60 109.73
  Q 84.60 114.57 84.79 119.75
  C 84.21 123.73 87.52 125.40 90.85 124.31
  C 92.58 123.75 93.75 122.00 96.32 121.96
  A 1.18 1.18 0.0 0 1 97.21 122.34
  Q 100.45 125.83 103.67 122.58
  A 1.30 1.29 -66.2 0 1 104.63 122.20
  Q 107.69 122.31 109.77 124.23
  A 1.08 1.08 0.0 0 0 111.52 123.82
  Q 112.99 119.90 112.10 117.67
  Q 110.86 110.80 105.86 109.21
  Q 96.05 103.36 87.60 109.73
  Z"
/>
<path fill="#9b9b9b" d="
  M 96.04 22.75
  Q 96.08 24.90 93.92 25.49
  A 0.40 0.39 -21.2 0 0 93.67 26.05
  C 94.40 27.48 99.09 36.91 97.43 37.65
  A 0.70 0.69 60.5 0 1 96.58 37.41
  L 96.29 37.00
  Q 95.13 30.05 90.54 24.75
  L 91.26 24.43
  A 0.45 0.44 61.5 0 0 91.45 23.77
  C 78.93 5.37 54.84 2.21 39.71 19.59
  A 0.47 0.46 -54.3 0 0 39.82 20.29
  L 40.25 20.54
  Q 34.16 24.57 31.21 31.25
  Q 29.17 31.95 27.46 30.50
  C 39.97 -0.36 77.58 -7.14 96.04 22.75
  Z"
/>
<path fill="#abaaaa" d="
  M 90.54 24.75
  C 83.54 16.87 72.07 14.48 63.39 21.20
  A 0.70 0.69 -46.2 0 1 62.58 21.22
  Q 51.79 13.61 40.25 20.54
  L 39.82 20.29
  A 0.47 0.46 -54.3 0 1 39.71 19.59
  C 54.84 2.21 78.93 5.37 91.45 23.77
  A 0.45 0.44 61.5 0 1 91.26 24.43
  L 90.54 24.75
  Z"
/>
<path fill="#000000" d="
  M 90.54 24.75
  Q 95.13 30.05 96.29 37.00
  Q 97.43 47.38 90.12 54.40
  A 0.37 0.37 0.0 0 0 90.20 54.99
  Q 96.18 58.25 99.79 64.00
  C 103.58 71.55 99.10 77.85 93.00 82.04
  C 76.22 92.28 51.87 91.84 34.74 82.55
  Q 25.64 77.61 25.46 68.00
  C 26.83 61.97 30.92 58.45 36.03 55.32
  A 0.39 0.39 0.0 0 0 36.09 54.71
  Q 25.95 44.91 31.21 31.25
  Q 34.16 24.57 40.25 20.54
  Q 51.79 13.61 62.58 21.22
  A 0.70 0.69 -46.2 0 0 63.39 21.20
  C 72.07 14.48 83.54 16.87 90.54 24.75
  Z
  M 40.56 56.25
  C 35.44 57.87 29.33 62.05 28.19 68.15
  Q 27.56 69.90 28.54 72.50
  Q 31.22 78.27 37.00 81.04
  C 53.68 89.12 76.80 89.65 92.75 79.04
  Q 97.59 75.90 98.71 70.25
  Q 98.92 68.68 98.26 66.77
  C 96.51 61.61 90.82 57.82 85.86 56.07
  Q 85.08 55.71 84.77 55.33
  A 0.45 0.44 57.8 0 1 84.92 54.65
  C 95.89 49.34 96.32 35.65 89.23 27.00
  C 82.67 19.01 71.05 16.80 63.41 24.59
  A 0.55 0.54 -47.9 0 1 62.68 24.63
  C 40.55 6.34 18.83 44.73 41.36 54.83
  A 0.45 0.45 0.0 0 1 41.53 55.51
  Q 41.25 55.89 40.56 56.25
  Z"
/>
<path fill="#c0bfbf" d="
  M 85.86 56.07
  Q 80.89 58.82 75.00 57.79
  C 73.03 52.15 66.00 55.87 68.54 61.00
  Q 63.50 62.53 58.42 61.12
  C 60.74 55.67 54.38 52.44 52.46 57.28
  Q 46.19 58.86 40.56 56.25
  Q 41.25 55.89 41.53 55.51
  A 0.45 0.45 0.0 0 0 41.36 54.83
  C 18.83 44.73 40.55 6.34 62.68 24.63
  A 0.55 0.54 -47.9 0 0 63.41 24.59
  C 71.05 16.80 82.67 19.01 89.23 27.00
  C 96.32 35.65 95.89 49.34 84.92 54.65
  A 0.45 0.44 57.8 0 0 84.77 55.33
  Q 85.08 55.71 85.86 56.07
  Z
  M 63.19 43.31
  C 67.85 53.40 81.48 58.12 89.05 48.20
  C 100.93 32.64 75.29 10.39 63.12 29.08
  A 0.32 0.31 -44.7 0 1 62.59 29.08
  C 50.74 10.56 25.32 32.17 36.55 47.95
  C 43.86 58.20 58.21 53.41 62.81 43.32
  A 0.21 0.21 0.0 0 1 63.19 43.31
  Z"
/>
<path fill="#000000" d="
  M 63.19 43.31
  A 0.21 0.21 0.0 0 0 62.81 43.32
  C 58.21 53.41 43.86 58.20 36.55 47.95
  C 25.32 32.17 50.74 10.56 62.59 29.08
  A 0.32 0.31 -44.7 0 0 63.12 29.08
  C 75.29 10.39 100.93 32.64 89.05 48.20
  C 81.48 58.12 67.85 53.40 63.19 43.31
  Z
  M 41.8492 48.5232
  A 12.92 11.37 124.3 0 0 58.5227 44.2573
  A 12.92 11.37 124.3 0 0 56.4108 27.1768
  A 12.92 11.37 124.3 0 0 39.7373 31.4427
  A 12.92 11.37 124.3 0 0 41.8492 48.5232
  Z
  M 84.0420 48.5235
  A 12.96 11.36 55.6 0 0 86.0933 31.4120
  A 12.96 11.36 55.6 0 0 69.3980 27.1365
  A 12.96 11.36 55.6 0 0 67.3467 44.2480
  A 12.96 11.36 55.6 0 0 84.0420 48.5235
  Z"
/>
<path fill="#888888" d="
  M 96.04 22.75
  Q 103.98 35.06 104.46 49.75
  Q 102.82 51.29 101.16 50.03
  Q 100.76 49.74 100.77 50.23
  L 100.97 63.03
  A 0.97 0.96 75.1 0 1 100.48 63.89
  Q 100.16 64.07 99.79 64.00
  Q 96.18 58.25 90.20 54.99
  A 0.37 0.37 0.0 0 1 90.12 54.40
  Q 97.43 47.38 96.29 37.00
  L 96.58 37.41
  A 0.70 0.69 60.5 0 0 97.43 37.65
  C 99.09 36.91 94.40 27.48 93.67 26.05
  A 0.40 0.39 -21.2 0 1 93.92 25.49
  Q 96.08 24.90 96.04 22.75
  Z"
/>
<path fill="#ffffff" d="
  M 41.8492 48.5232
  A 12.92 11.37 124.3 0 1 39.7373 31.4427
  A 12.92 11.37 124.3 0 1 56.4108 27.1768
  A 12.92 11.37 124.3 0 1 58.5227 44.2573
  A 12.92 11.37 124.3 0 1 41.8492 48.5232
  Z
  M 55.80 40.08
  A 3.40 3.40 0.0 0 0 52.40 36.68
  A 3.40 3.40 0.0 0 0 49.00 40.08
  A 3.40 3.40 0.0 0 0 52.40 43.48
  A 3.40 3.40 0.0 0 0 55.80 40.08
  Z"
/>
<path fill="#ffffff" d="
  M 84.0420 48.5235
  A 12.96 11.36 55.6 0 1 67.3467 44.2480
  A 12.96 11.36 55.6 0 1 69.3980 27.1365
  A 12.96 11.36 55.6 0 1 86.0933 31.4120
  A 12.96 11.36 55.6 0 1 84.0420 48.5235
  Z
  M 77.02 40.08
  A 3.41 3.41 0.0 0 0 73.61 36.67
  A 3.41 3.41 0.0 0 0 70.20 40.08
  A 3.41 3.41 0.0 0 0 73.61 43.49
  A 3.41 3.41 0.0 0 0 77.02 40.08
  Z"
/>
<path fill="#888888" d="
  M 27.46 30.50
  Q 29.17 31.95 31.21 31.25
  Q 25.95 44.91 36.09 54.71
  A 0.39 0.39 0.0 0 1 36.03 55.32
  C 30.92 58.45 26.83 61.97 25.46 68.00
  L 22.79 66.75
  C 22.48 54.30 22.47 42.18 27.46 30.50
  Z"
/>
<path fill="#9b9b9b" d="
  M 7.46 44.25
  Q 5.41 44.77 4.04 43.50
  C 4.41 34.54 14.00 29.53 20.68 36.34
  Q 21.03 36.70 20.56 36.55
  Q 9.44 33.03 7.46 44.25
  Z"
/>
<path fill="#9b9b9b" d="
  M 123.46 44.75
  Q 121.93 45.37 120.29 44.75
  C 120.10 37.25 113.72 34.09 106.99 36.73
  Q 106.52 36.92 106.85 36.54
  C 113.68 28.86 124.21 35.11 123.46 44.75
  Z"
/>
<circle fill="#000000" cx="52.40" cy="40.08" r="3.40"/>
<circle fill="#000000" cx="73.61" cy="40.08" r="3.41"/>
<path fill="#d4b58b" d="
  M 19.00 50.00
  C 4.88 54.74 8.10 30.91 20.44 39.07
  A 0.77 0.76 21.0 0 1 20.78 39.82
  L 19.50 49.39
  A 0.75 0.75 0.0 0 1 19.00 50.00
  Z"
/>
<path fill="#d4b58b" d="
  M 107.15 39.28
  C 113.64 33.59 122.70 42.87 115.84 49.12
  Q 112.86 51.83 108.58 49.85
  A 0.78 0.76 -82.6 0 1 108.13 49.25
  L 106.85 40.11
  A 0.95 0.93 65.5 0 1 107.15 39.28
  Z"
/>
<path fill="#7b7b7b" d="
  M 4.04 43.50
  Q 5.41 44.77 7.46 44.25
  Q 9.10 53.65 18.74 52.36
  Q 19.24 52.29 18.83 52.59
  C 11.89 57.71 4.26 51.02 4.04 43.50
  Z"
/>
<path fill="#7b7b7b" d="
  M 120.29 44.75
  Q 121.93 45.37 123.46 44.75
  C 122.76 52.12 115.24 57.12 108.68 52.56
  Q 108.27 52.28 108.76 52.35
  Q 118.02 53.69 120.29 44.75
  Z"
/>
<path fill="#727272" d="
  M 104.46 49.75
  L 104.71 81.50
  Q 103.80 81.87 102.66 81.61
  A 0.89 0.89 0.0 0 0 101.84 81.86
  C 99.79 84.01 95.06 85.17 93.00 82.04
  C 99.10 77.85 103.58 71.55 99.79 64.00
  Q 100.16 64.07 100.48 63.89
  A 0.97 0.96 75.1 0 0 100.97 63.03
  L 100.77 50.23
  Q 100.76 49.74 101.16 50.03
  Q 102.82 51.29 104.46 49.75
  Z"
/>
<path fill="#000000" d="
  M 58.42 61.12
  C 56.04 64.92 51.57 61.55 52.46 57.28
  C 54.38 52.44 60.74 55.67 58.42 61.12
  Z
  M 55.6522 60.0000
  A 1.25 0.88 89.9 0 0 56.5300 58.7485
  A 1.25 0.88 89.9 0 0 55.6478 57.5000
  A 1.25 0.88 89.9 0 0 54.7700 58.7515
  A 1.25 0.88 89.9 0 0 55.6522 60.0000
  Z"
/>
<path fill="#000000" d="
  M 75.00 57.79
  C 75.60 62.05 71.49 64.38 68.54 61.00
  C 66.00 55.87 73.03 52.15 75.00 57.79
  Z
  M 71.5322 60.0300
  A 1.28 1.02 89.9 0 0 72.5500 58.7482
  A 1.28 1.02 89.9 0 0 71.5278 57.4700
  A 1.28 1.02 89.9 0 0 70.5100 58.7518
  A 1.28 1.02 89.9 0 0 71.5322 60.0300
  Z"
/>
<path fill="#abaaaa" d="
  M 85.86 56.07
  C 90.82 57.82 96.51 61.61 98.26 66.77
  L 28.19 68.15
  C 29.33 62.05 35.44 57.87 40.56 56.25
  Q 46.19 58.86 52.46 57.28
  C 51.57 61.55 56.04 64.92 58.42 61.12
  Q 63.50 62.53 68.54 61.00
  C 71.49 64.38 75.60 62.05 75.00 57.79
  Q 80.89 58.82 85.86 56.07
  Z"
/>
<ellipse fill="#727272" cx="0.00" cy="0.00" transform="translate(55.65,58.75) rotate(89.9)" rx="1.25" ry="0.88"/>
<ellipse fill="#727272" cx="0.00" cy="0.00" transform="translate(71.53,58.75) rotate(89.9)" rx="1.28" ry="1.02"/>
<path fill="#9b9b9b" d="
  M 98.26 66.77
  Q 98.92 68.68 98.71 70.25
  C 77.25 69.60 55.43 70.70 33.96 71.28
  C 32.11 71.33 30.36 72.07 28.54 72.50
  Q 27.56 69.90 28.19 68.15
  L 98.26 66.77
  Z"
/>
<path fill="#616161" d="
  M 22.79 66.75
  L 25.46 68.00
  Q 25.64 77.61 34.74 82.55
  C 51.87 91.84 76.22 92.28 93.00 82.04
  C 95.06 85.17 99.79 84.01 101.84 81.86
  A 0.89 0.89 0.0 0 1 102.66 81.61
  Q 103.80 81.87 104.71 81.50
  L 104.71 104.00
  A 0.37 0.37 0.0 0 1 104.23 104.36
  C 96.84 102.08 87.12 102.49 83.54 110.50
  L 83.04 108.75
  Q 82.82 106.75 81.82 105.68
  C 73.51 89.86 52.52 90.47 45.25 106.71
  L 44.54 109.25
  L 43.96 110.25
  C 40.19 102.37 30.67 102.20 23.27 104.36
  A 0.38 0.37 -20.3 0 1 22.79 104.00
  L 22.79 66.75
  Z"
/>
<path fill="#90908f" d="
  M 98.71 70.25
  Q 97.59 75.90 92.75 79.04
  C 89.66 78.70 80.54 78.98 80.00 77.04
  Q 81.28 76.36 82.17 75.22
  Q 82.50 74.80 81.99 74.96
  Q 77.36 76.39 72.68 77.67
  C 62.52 80.45 53.72 77.68 43.99 74.98
  Q 43.49 74.85 43.87 75.20
  Q 46.24 77.37 49.25 78.54
  Q 43.34 80.77 37.00 81.04
  Q 31.22 78.27 28.54 72.50
  C 30.36 72.07 32.11 71.33 33.96 71.28
  C 55.43 70.70 77.25 69.60 98.71 70.25
  Z"
/>
<path fill="#7b7b7b" d="
  M 19.46 79.75
  Q 13.79 79.65 8.29 78.25
  Q 10.62 70.21 18.83 71.13
  A 0.59 0.58 3.3 0 1 19.35 71.71
  L 19.46 79.75
  Z"
/>
<path fill="#7b7b7b" d="
  M 120.22 81.72
  Q 114.40 83.25 108.29 83.75
  L 108.28 71.57
  A 0.56 0.55 -2.9 0 1 108.78 71.02
  C 116.01 70.17 119.21 75.33 120.22 81.72
  Z"
/>
<path fill="#000000" d="
  M 80.00 77.04
  Q 65.06 85.85 49.25 78.54
  Q 46.24 77.37 43.87 75.20
  Q 43.49 74.85 43.99 74.98
  C 53.72 77.68 62.52 80.45 72.68 77.67
  Q 77.36 76.39 81.99 74.96
  Q 82.50 74.80 82.17 75.22
  Q 81.28 76.36 80.00 77.04
  Z"
/>
<path fill="#7b7b7b" d="
  M 80.00 77.04
  C 80.54 78.98 89.66 78.70 92.75 79.04
  C 76.80 89.65 53.68 89.12 37.00 81.04
  Q 43.34 80.77 49.25 78.54
  Q 65.06 85.85 80.00 77.04
  Z"
/>
<path fill="#727272" d="
  M 8.29 78.25
  Q 13.79 79.65 19.46 79.75
  L 19.46 87.50
  Q 16.55 88.19 14.25 87.50
  Q 10.31 86.32 7.04 86.75
  Q 6.82 82.37 8.29 78.25
  Z"
/>
<path fill="#616161" d="
  M 120.22 81.72
  Q 121.04 86.58 120.46 92.00
  L 108.29 93.75
  L 108.29 83.75
  Q 114.40 83.25 120.22 81.72
  Z"
/>
<path fill="#545454" d="
  M 19.46 87.50
  L 19.41 99.84
  A 0.58 0.57 -3.4 0 1 18.90 100.41
  L 8.80 101.58
  A 0.84 0.83 -7.1 0 1 7.88 100.87
  Q 6.86 93.94 7.04 86.75
  Q 10.31 86.32 14.25 87.50
  Q 16.55 88.19 19.46 87.50
  Z"
/>
<path fill="#545454" d="
  M 120.46 92.00
  L 119.67 101.16
  A 0.62 0.61 6.3 0 1 118.98 101.71
  L 108.96 100.47
  A 0.70 0.69 -87.2 0 1 108.35 99.79
  L 108.29 93.75
  L 120.46 92.00
  Z"
/>
<path fill="#888888" d="
  M 81.82 105.68
  Q 64.50 107.06 47.25 107.31
  Q 46.17 107.33 45.25 106.71
  C 52.52 90.47 73.51 89.86 81.82 105.68
  Z"
/>
<path fill="#888888" d="
  M 19.02 106.52
  C 15.23 109.12 14.04 111.63 12.45 115.77
  A 0.62 0.61 6.4 0 1 11.96 116.15
  Q 9.15 116.52 6.94 118.36
  A 0.59 0.59 0.0 0 1 6.17 118.35
  C 2.74 115.34 5.11 108.56 7.39 105.56
  A 1.04 1.03 -74.8 0 1 8.11 105.14
  L 19.00 103.72
  A 0.45 0.44 -3.9 0 1 19.51 104.16
  L 19.50 105.61
  A 1.11 1.10 -17.3 0 1 19.02 106.52
  Z"
/>
<path fill="#9b9b9b" d="
  M 121.96 108.75
  Q 117.19 110.03 112.25 109.79
  C 110.87 107.85 107.60 106.76 108.29 104.22
  A 0.55 0.55 0.0 0 1 108.89 103.82
  L 119.66 105.17
  A 0.87 0.87 0.0 0 1 120.31 105.62
  L 121.96 108.75
  Z"
/>
<path fill="#7b7b7b" d="
  M 81.82 105.68
  Q 82.82 106.75 83.04 108.75
  Q 83.21 110.52 81.24 110.61
  Q 68.46 111.22 55.68 111.31
  C 53.19 111.32 49.80 112.02 46.68 111.58
  A 1.24 1.23 76.4 0 1 45.88 111.09
  L 44.54 109.25
  L 45.25 106.71
  Q 46.17 107.33 47.25 107.31
  Q 64.50 107.06 81.82 105.68
  Z"
/>
<path fill="#abaaaa" d="
  M 42.25 115.21
  C 37.49 115.11 20.35 115.54 17.21 113.00
  C 23.32 105.15 39.53 102.48 42.25 115.21
  Z"
/>
<path fill="#abaaaa" d="
  M 105.86 109.21
  Q 97.85 111.69 88.49 111.02
  Q 87.66 110.96 87.60 109.73
  Q 96.05 103.36 105.86 109.21
  Z"
/>
<path fill="#727272" d="
  M 83.04 108.75
  L 83.54 110.50
  Q 81.79 113.64 81.47 117.26
  A 0.57 0.57 0.0 0 1 80.96 117.78
  Q 64.00 119.71 47.05 117.92
  A 0.82 0.79 -5.5 0 1 46.37 117.38
  L 43.96 110.25
  L 44.54 109.25
  L 45.88 111.09
  A 1.24 1.23 76.4 0 0 46.68 111.58
  C 49.80 112.02 53.19 111.32 55.68 111.31
  Q 68.46 111.22 81.24 110.61
  Q 83.21 110.52 83.04 108.75
  Z"
/>
<path fill="#9b9b9b" d="
  M 105.86 109.21
  Q 110.86 110.80 112.10 117.67
  L 84.79 119.75
  Q 84.60 114.57 87.60 109.73
  Q 87.66 110.96 88.49 111.02
  Q 97.85 111.69 105.86 109.21
  Z"
/>
<path fill="#888888" d="
  M 121.96 108.75
  Q 124.01 113.16 122.19 117.76
  A 1.12 1.12 0.0 0 1 120.45 118.22
  Q 118.51 116.67 115.79 116.06
  A 0.87 0.86 87.6 0 1 115.16 115.48
  Q 114.19 112.38 112.25 109.79
  Q 117.19 110.03 121.96 108.75
  Z"
/>
<path fill="#888888" d="
  M 17.21 113.00
  C 20.35 115.54 37.49 115.11 42.25 115.21
  Q 44.10 119.67 41.66 123.72
  A 1.26 1.24 -81.7 0 1 40.92 124.28
  C 36.36 125.52 35.58 122.59 31.83 122.04
  A 1.30 1.30 0.0 0 0 31.02 122.19
  L 27.22 124.28
  A 0.91 0.90 51.4 0 1 26.18 124.16
  Q 21.85 120.23 17.46 124.67
  A 0.65 0.64 -35.1 0 1 16.42 124.49
  Q 13.66 118.54 17.21 113.00
  Z"
/>
<path fill="#7b7b7b" d="
  M 112.10 117.67
  Q 112.99 119.90 111.52 123.82
  A 1.08 1.08 0.0 0 1 109.77 124.23
  Q 107.69 122.31 104.63 122.20
  A 1.30 1.29 -66.2 0 0 103.67 122.58
  Q 100.45 125.83 97.21 122.34
  A 1.18 1.18 0.0 0 0 96.32 121.96
  C 93.75 122.00 92.58 123.75 90.85 124.31
  C 87.52 125.40 84.21 123.73 84.79 119.75
  L 112.10 117.67
  Z"
/>
</svg>
